<?xml version="1.0" encoding="UTF-8"?>
<!DOCTYPE svg PUBLIC "-//W3C//DTD SVG 1.1//EN" "http://www.w3.org/Graphics/SVG/1.1/DTD/svg11.dtd">
<svg xmlns="http://www.w3.org/2000/svg" version="1.1" width="440px" height="440px" style="shape-rendering:geometricPrecision; text-rendering:geometricPrecision; image-rendering:optimizeQuality; fill-rule:evenodd; clip-rule:evenodd" xmlns:xlink="http://www.w3.org/1999/xlink">
<g><path style="opacity:1" fill="#000000" d="M 218.5,24.5 C 219.376,24.3691 220.043,24.7025 220.5,25.5C 233.039,50.7443 245.705,75.911 258.5,101C 274.423,91.793 289.923,81.6263 305,70.5C 304.211,89.1634 303.045,107.83 301.5,126.5C 329.693,125.204 357.859,123.538 386,121.5C 386.833,121.833 387.667,122.167 388.5,122.5C 372.454,146.093 356.788,169.927 341.5,194C 357.522,203.012 373.856,211.512 390.5,219.5C 374.042,227.563 357.708,235.896 341.5,244.5C 357.167,268.5 372.833,292.5 388.5,316.5C 388,316.833 387.5,317.167 387,317.5C 358.263,315.38 329.763,313.713 301.5,312.5C 303.001,331.175 304.167,349.841 305,368.5C 289.923,357.374 274.423,347.207 258.5,338C 245.628,363.578 232.628,389.078 219.5,414.5C 206.418,389.172 193.418,363.672 180.5,338C 164.577,347.207 149.077,357.374 134,368.5C 134.927,349.849 136.094,331.182 137.5,312.5C 108.406,313.744 79.9059,315.411 52,317.5C 51.5,317.167 51,316.833 50.5,316.5C 66.1667,292.5 81.8333,268.5 97.5,244.5C 81.2916,235.896 64.9582,227.563 48.5,219.5C 65.1443,211.512 81.4777,203.012 97.5,194C 81.7151,170.269 66.0484,146.436 50.5,122.5C 51.3333,122.167 52.1667,121.833 53,121.5C 81.1419,123.517 109.309,125.184 137.5,126.5C 135.956,107.838 134.789,89.1714 134,70.5C 149.077,81.6263 164.577,91.793 180.5,101C 193.577,75.6788 206.244,50.1788 218.5,24.5 Z M 218.5,64.5 C 219.376,64.3691 220.043,64.7025 220.5,65.5C 230.878,85.2496 240.378,105.25 249,125.5C 239.612,116.275 229.778,107.609 219.5,99.5C 209.222,107.609 199.388,116.275 190,125.5C 198.891,105.043 208.391,84.71 218.5,64.5 Z M 150.5,100.5 C 158.604,102.807 166.271,105.974 173.5,110C 171.301,116.229 168.468,122.062 165,127.5C 158.904,126.217 152.737,125.551 146.5,125.5C 147.725,117.15 149.058,108.816 150.5,100.5 Z M 286.5,100.5 C 287.931,100.881 288.764,101.881 289,103.5C 290.277,110.827 291.443,118.16 292.5,125.5C 286.263,125.551 280.096,126.217 274,127.5C 270.532,122.062 267.699,116.229 265.5,110C 272.292,106.348 279.292,103.181 286.5,100.5 Z M 178.5,124.5 C 192.146,137.478 205.813,150.478 219.5,163.5C 233.288,150.845 246.788,137.845 260,124.5C 247.354,151.457 233.854,178.123 219.5,204.5C 205.297,178.093 191.63,151.426 178.5,124.5 Z M 280.5,136.5 C 281.043,136.56 281.376,136.893 281.5,137.5C 276.905,155.382 272.238,173.216 267.5,191C 285.833,196.667 304.167,202.333 322.5,208C 294.256,209.188 266.09,210.688 238,212.5C 236.27,212.491 234.437,212.158 232.5,211.5C 248.526,186.482 264.526,161.482 280.5,136.5 Z M 158.5,137.5 C 174.476,162.102 190.476,186.768 206.5,211.5C 204.563,212.158 202.73,212.491 201,212.5C 172.91,210.688 144.744,209.188 116.5,208C 134.833,202.333 153.167,196.667 171.5,191C 166.461,173.343 162.128,155.51 158.5,137.5 Z M 122.5,197.5 C 109.485,179.326 96.8188,160.826 84.5,142C 107.334,142.603 130.001,144.27 152.5,147C 140.179,150.941 127.845,154.774 115.5,158.5C 117.961,171.474 120.295,184.474 122.5,197.5 Z M 316.5,197.5 C 318.998,184.842 321.165,172.175 323,159.5C 310.935,155.107 298.769,150.94 286.5,147C 308.994,144.203 331.661,142.536 354.5,142C 342.181,160.826 329.515,179.326 316.5,197.5 Z M 100.5,203.5 C 104.829,208.508 108.829,213.841 112.5,219.5C 108.86,224.973 105.027,230.306 101,235.5C 94.6996,230.275 88.5329,224.942 82.5,219.5C 88.2224,213.773 94.2224,208.44 100.5,203.5 Z M 337.5,203.5 C 344.398,208.122 350.731,213.456 356.5,219.5C 350.467,224.942 344.3,230.275 338,235.5C 333.973,230.306 330.14,224.973 326.5,219.5C 330.192,214.149 333.859,208.815 337.5,203.5 Z M 202.5,226.5 C 203.978,226.238 205.311,226.571 206.5,227.5C 190.136,252.699 173.969,278.033 158,303.5C 161.73,284.863 166.23,266.363 171.5,248C 153.167,242.333 134.833,236.667 116.5,231C 145.062,229.774 173.729,228.274 202.5,226.5 Z M 232.5,226.5 C 262.756,228.154 292.756,229.654 322.5,231C 304.167,236.667 285.833,242.333 267.5,248C 272.564,266.088 277.064,284.255 281,302.5C 264.189,277.533 248.022,252.2 232.5,226.5 Z M 218.5,234.5 C 219.376,234.369 220.043,234.702 220.5,235.5C 224.745,244.324 229.245,252.99 234,261.5C 243.269,279.035 251.935,296.702 260,314.5C 246.788,301.155 233.288,288.155 219.5,275.5C 206.015,288.151 192.682,300.985 179.5,314C 178.833,314.667 178.167,314.667 177.5,314C 191.831,287.838 205.497,261.338 218.5,234.5 Z M 122.5,241.5 C 120.002,254.153 117.835,266.819 116,279.5C 128.286,283.76 140.453,288.093 152.5,292.5C 129.933,294.949 107.266,296.449 84.5,297C 97.0297,278.322 109.696,259.822 122.5,241.5 Z M 316.5,241.5 C 329.304,259.822 341.97,278.322 354.5,297C 350.467,297.35 346.633,297.517 343,297.5C 324.079,296.019 305.246,294.186 286.5,292C 298.758,288.025 310.924,283.859 323,279.5C 321.165,266.819 318.998,254.153 316.5,241.5 Z M 162.5,311.5 C 163.978,311.238 165.311,311.571 166.5,312.5C 168.971,317.942 171.304,323.442 173.5,329C 166.682,332.726 159.515,335.893 152,338.5C 151.055,338.095 150.388,337.428 150,336.5C 148.615,328.856 147.448,321.19 146.5,313.5C 152.051,313.473 157.384,312.806 162.5,311.5 Z M 272.5,311.5 C 279.13,312.495 285.797,313.162 292.5,313.5C 291.581,322.019 289.915,330.353 287.5,338.5C 279.78,335.991 272.446,332.824 265.5,329C 267.985,323.202 270.318,317.368 272.5,311.5 Z M 189.5,313.5 C 199.185,322.518 209.185,331.184 219.5,339.5C 229.778,331.391 239.612,322.725 249,313.5C 240.132,334.573 230.132,355.239 219,375.5C 208.866,354.902 199.033,334.235 189.5,313.5 Z"/></g>
</svg>
